<svg width="144" height="144" viewBox="0 0 144 144" fill="none" xmlns="http://www.w3.org/2000/svg">
<rect width="144" height="144" fill="#0A0F17"/>
<path fill-rule="evenodd" clip-rule="evenodd" d="M80.9396 87.8973L115.528 63.9327V111.862L80.9396 87.8973ZM28.4721 111.862V63.9327L63.0516 87.8973L28.4721 111.862ZM108.273 56.8947V65.4291L114.442 61.1614L108.273 56.8947ZM35.7267 65.4291V56.8947L29.569 61.1614L35.7219 65.4291H35.7267ZM65.6023 89.6625L31.6545 113.181H112.336L78.4054 89.6625L72.8222 93.524C72.5795 93.692 72.2913 93.7821 71.9961 93.7821C71.7009 93.7821 71.4127 93.692 71.17 93.524L65.6023 89.6625Z" fill="#0078D5"/>
<path fill-rule="evenodd" clip-rule="evenodd" d="M46.425 42.111H97.5693C97.9541 42.111 98.3231 41.9581 98.5952 41.686C98.8674 41.4139 99.0202 41.0448 99.0202 40.66C99.0202 40.2752 98.8674 39.9062 98.5952 39.6341C98.3231 39.362 97.9541 39.2091 97.5693 39.2091H46.423C46.0382 39.2091 45.6692 39.362 45.3971 39.6341C45.125 39.9062 44.9721 40.2752 44.9721 40.66C44.9721 41.0448 45.125 41.4139 45.3971 41.686C45.6692 41.9581 46.0402 42.111 46.425 42.111ZM97.5693 54.5145C97.9541 54.5145 98.3231 54.3616 98.5952 54.0895C98.8674 53.8174 99.0202 53.4484 99.0202 53.0636C99.0202 52.6787 98.8674 52.3097 98.5952 52.0376C98.3231 51.7655 97.9541 51.6126 97.5693 51.6126H46.423C46.0382 51.6126 45.6692 51.7655 45.3971 52.0376C45.125 52.3097 44.9721 52.6787 44.9721 53.0636C44.9721 53.4484 45.125 53.8174 45.3971 54.0895C45.6692 54.3616 46.0382 54.5145 46.423 54.5145H97.5693ZM97.5693 66.9199C97.9541 66.9199 98.3231 66.7671 98.5952 66.495C98.8674 66.2229 99.0202 65.8538 99.0202 65.469C99.0202 65.0842 98.8674 64.7151 98.5952 64.443C98.3231 64.1709 97.9541 64.0181 97.5693 64.0181H46.423C46.0382 64.0181 45.6692 64.1709 45.3971 64.443C45.125 64.7151 44.9721 65.0842 44.9721 65.469C44.9721 65.8538 45.125 66.2229 45.3971 66.495C45.6692 66.7671 46.0382 66.9199 46.423 66.9199H97.5693ZM38.6335 66.8164L72 89.9394L105.371 66.8164V30.8189H38.6286V66.8164H38.6335Z" fill="#0078D5"/>
<rect x="42.773" y="35.8705" width="57.4237" height="32.8136" fill="#0078D5"/>
<path d="M77.0997 55.1514C77.2305 55.0853 77.3732 55.0457 77.5194 55.035C77.8106 55.0135 78.0986 55.1077 78.3208 55.2971C78.5433 55.4893 78.6804 55.7619 78.7019 56.0551C78.7235 56.3483 78.6277 56.6381 78.4356 56.8607L71.1355 65.3409C71.035 65.4577 70.9112 65.5523 70.7721 65.6185C70.6329 65.6848 70.4815 65.7214 70.3275 65.7258C70.1734 65.7303 70.0201 65.7026 69.8774 65.6446C69.7346 65.5865 69.6055 65.4993 69.4984 65.3886L65.6091 61.3715C65.4048 61.1615 65.2919 60.8792 65.2951 60.5862C65.2983 60.2932 65.4174 60.0134 65.6262 59.808C65.7303 59.7054 65.8535 59.6243 65.989 59.5695C66.1244 59.5147 66.2694 59.4873 66.4155 59.4887C66.5616 59.4901 66.706 59.5203 66.8403 59.5777C66.9747 59.6351 67.0964 59.7185 67.1984 59.8231L70.2497 62.9739L76.7571 55.4205C76.8524 55.309 76.9688 55.2176 77.0997 55.1514Z" fill="white"/>
<circle cx="72" cy="60.3792" r="14.4216" stroke="white" stroke-width="4.20155"/>
</svg>
