<svg width="167" height="46" viewBox="0 0 167 46" fill="none" xmlns="http://www.w3.org/2000/svg">
<path d="M16.616 16.964C16.5016 15.8927 16.0191 15.0585 15.1685 14.4615C14.3262 13.8646 13.2304 13.5661 11.881 13.5661C10.9324 13.5661 10.1187 13.7092 9.43989 13.9954C8.76112 14.2816 8.24182 14.6701 7.88199 15.1608C7.52216 15.6514 7.33815 16.2116 7.32998 16.8413C7.32998 17.3647 7.44856 17.8186 7.68572 18.203C7.93105 18.5873 8.26226 18.9144 8.67934 19.1843C9.09641 19.446 9.55847 19.6668 10.0655 19.8467C10.5725 20.0266 11.0837 20.1779 11.5989 20.3006L13.9541 20.8894C14.9028 21.1102 15.8146 21.4087 16.6896 21.7849C17.5729 22.1611 18.362 22.6354 19.0572 23.2079C19.7605 23.7803 20.3166 24.4714 20.7255 25.281C21.1344 26.0906 21.3388 27.0392 21.3388 28.1269C21.3388 29.5989 20.9626 30.8951 20.2103 32.0155C19.4579 33.1277 18.3702 33.9987 16.9472 34.6284C15.5325 35.2499 13.8192 35.5607 11.8074 35.5607C9.85287 35.5607 8.15595 35.2581 6.71663 34.6529C5.28549 34.0477 4.16511 33.1645 3.35549 32.0033C2.55405 30.842 2.12062 29.4272 2.05519 27.7589H6.53262C6.59805 28.6339 6.86792 29.3618 7.34224 29.9424C7.81656 30.5231 8.434 30.9565 9.19455 31.2427C9.96328 31.5289 10.822 31.6721 11.7706 31.6721C12.7601 31.6721 13.627 31.5248 14.3712 31.2304C15.1236 30.9279 15.7124 30.5108 16.1376 29.9792C16.5629 29.4395 16.7796 28.8098 16.7878 28.0901C16.7796 27.4359 16.5874 26.8961 16.2112 26.4709C15.835 26.0374 15.3076 25.6776 14.6288 25.3914C13.9582 25.097 13.1731 24.8353 12.2735 24.6063L9.41535 23.8703C7.34633 23.3387 5.71074 22.5332 4.50858 21.4537C3.3146 20.366 2.71761 18.9226 2.71761 17.1235C2.71761 15.6433 3.11833 14.3471 3.91977 13.2349C4.72939 12.1227 5.82932 11.2599 7.21957 10.6465C8.60983 10.025 10.1841 9.71425 11.9423 9.71425C13.7251 9.71425 15.2871 10.025 16.6283 10.6465C17.9777 11.2599 19.0367 12.1145 19.8054 13.2103C20.5742 14.298 20.9708 15.5492 20.9953 16.964H16.616ZM25.1998 35.1804V16.3384H29.6405V35.1804H25.1998ZM27.4324 13.6642C26.7291 13.6642 26.1239 13.4311 25.6169 12.965C25.1099 12.4907 24.8564 11.9223 24.8564 11.2599C24.8564 10.5893 25.1099 10.0209 25.6169 9.55477C26.1239 9.08045 26.7291 8.84329 27.4324 8.84329C28.1439 8.84329 28.7491 9.08045 29.2479 9.55477C29.7549 10.0209 30.0085 10.5893 30.0085 11.2599C30.0085 11.9223 29.7549 12.4907 29.2479 12.965C28.7491 13.4311 28.1439 13.6642 27.4324 13.6642ZM42.4011 42.6387C40.8064 42.6387 39.4366 42.422 38.2917 41.9885C37.1468 41.5633 36.2268 40.9908 35.5317 40.2712C34.8365 39.5515 34.354 38.7542 34.0842 37.8791L38.0832 36.91C38.2631 37.278 38.5248 37.642 38.8683 38.0018C39.2117 38.3698 39.6738 38.6724 40.2544 38.9095C40.8432 39.1549 41.5833 39.2776 42.4747 39.2776C43.7341 39.2776 44.7768 38.9709 45.6028 38.3575C46.4288 37.7524 46.8418 36.7547 46.8418 35.3644V31.7947H46.621C46.392 32.2527 46.0567 32.7229 45.6151 33.2054C45.1816 33.6879 44.6051 34.0927 43.8854 34.4198C43.1739 34.747 42.2785 34.9105 41.199 34.9105C39.7515 34.9105 38.4389 34.5711 37.2613 33.8924C36.0918 33.2054 35.1596 32.1832 34.4644 30.8256C33.7775 29.4599 33.434 27.7507 33.434 25.6981C33.434 23.629 33.7775 21.883 34.4644 20.4601C35.1596 19.0289 36.0959 17.9454 37.2736 17.2093C38.4512 16.4651 39.7637 16.0931 41.2112 16.0931C42.3153 16.0931 43.223 16.2811 43.9345 16.6573C44.6542 17.0253 45.2266 17.471 45.6519 17.9944C46.0771 18.5096 46.4002 18.9962 46.621 19.4542H46.8663V16.3384H51.2456V35.4871C51.2456 37.0981 50.8612 38.4311 50.0925 39.4861C49.3238 40.541 48.2729 41.3302 46.9399 41.8536C45.6069 42.377 44.094 42.6387 42.4011 42.6387ZM42.4379 31.4267C43.3784 31.4267 44.1798 31.1977 44.8423 30.7398C45.5047 30.2818 46.0076 29.6235 46.3511 28.7648C46.6946 27.9061 46.8663 26.8757 46.8663 25.6735C46.8663 24.4877 46.6946 23.4491 46.3511 22.5577C46.0158 21.6663 45.5169 20.9753 44.8545 20.4846C44.2003 19.9858 43.3948 19.7363 42.4379 19.7363C41.4484 19.7363 40.6224 19.9939 39.96 20.5091C39.2976 21.0244 38.7987 21.7317 38.4634 22.6313C38.1282 23.5227 37.9605 24.5368 37.9605 25.6735C37.9605 26.8266 38.1282 27.8366 38.4634 28.7035C38.8069 29.5621 39.3099 30.2327 39.9723 30.7152C40.6429 31.1896 41.4648 31.4267 42.4379 31.4267Z" fill="white"/>
<path d="M119.869 37.8453V12.7226H135.963V16.5376H124.42V23.358H134.859V27.173H124.42V37.8453H119.869ZM139.913 37.8453V19.0033H144.354V37.8453H139.913ZM142.146 16.3291C141.442 16.3291 140.837 16.096 140.33 15.6299C139.823 15.1555 139.569 14.5872 139.569 13.9248C139.569 13.2542 139.823 12.6858 140.33 12.2196C140.837 11.7453 141.442 11.5082 142.146 11.5082C142.857 11.5082 143.462 11.7453 143.961 12.2196C144.468 12.6858 144.722 13.2542 144.722 13.9248C144.722 14.5872 144.468 15.1555 143.961 15.6299C143.462 16.096 142.857 16.3291 142.146 16.3291ZM152.551 19.0033L156.354 25.9586L160.218 19.0033H164.916L159.236 28.4243L165.014 37.8453H160.34L156.354 31.0617L152.404 37.8453H147.693L153.434 28.4243L147.84 19.0033H152.551Z" fill="white"/>
<path fill-rule="evenodd" clip-rule="evenodd" d="M90.1832 31.0326L108.988 18.0035V44.0617L90.1832 31.0326ZM61.6575 44.0617V18.0035L80.4578 31.0326L61.6575 44.0617ZM105.044 14.177V18.817L108.398 16.4968L105.044 14.177ZM65.6017 18.817V14.177L62.2538 16.4968L65.5991 18.817H65.6017ZM81.8446 31.9923L63.3877 44.779H107.253L88.8054 31.9923L85.7699 34.0917C85.6379 34.1831 85.4813 34.2321 85.3208 34.2321C85.1603 34.2321 85.0036 34.1831 84.8717 34.0917L81.8446 31.9923Z" fill="#0078D5"/>
<path fill-rule="evenodd" clip-rule="evenodd" d="M71.4182 6.13933H99.2245C99.4337 6.13933 99.6343 6.05622 99.7823 5.90828C99.9302 5.76035 100.013 5.5597 100.013 5.35048C100.013 5.14127 99.9302 4.94062 99.7823 4.79269C99.6343 4.64475 99.4337 4.56164 99.2245 4.56164H71.4171C71.2079 4.56164 71.0072 4.64475 70.8593 4.79269C70.7114 4.94062 70.6283 5.14127 70.6283 5.35048C70.6283 5.5597 70.7114 5.76035 70.8593 5.90828C71.0072 6.05622 71.2089 6.13933 71.4182 6.13933ZM99.2245 12.8829C99.4337 12.8829 99.6343 12.7998 99.7823 12.6519C99.9302 12.5039 100.013 12.3033 100.013 12.0941C100.013 11.8849 99.9302 11.6842 99.7823 11.5363C99.6343 11.3883 99.4337 11.3052 99.2245 11.3052H71.4171C71.2079 11.3052 71.0072 11.3883 70.8593 11.5363C70.7114 11.6842 70.6283 11.8849 70.6283 12.0941C70.6283 12.3033 70.7114 12.5039 70.8593 12.6519C71.0072 12.7998 71.2079 12.8829 71.4171 12.8829H99.2245ZM99.2245 19.6276C99.4337 19.6276 99.6343 19.5445 99.7823 19.3965C99.9302 19.2486 100.013 19.0479 100.013 18.8387C100.013 18.6295 99.9302 18.4289 99.7823 18.2809C99.6343 18.133 99.4337 18.0499 99.2245 18.0499H71.4171C71.2079 18.0499 71.0072 18.133 70.8593 18.2809C70.7114 18.4289 70.6283 18.6295 70.6283 18.8387C70.6283 19.0479 70.7114 19.2486 70.8593 19.3965C71.0072 19.5445 71.2079 19.6276 71.4171 19.6276H99.2245ZM67.182 19.5713L85.3229 32.1429L103.466 19.5713V0H67.1794V19.5713H67.182Z" fill="#0078D5"/>
<rect x="69.4327" y="2.74648" width="31.2203" height="17.8402" fill="#0078D5"/>
<path d="M88.0955 13.2292C88.1666 13.1932 88.2442 13.1717 88.3237 13.1659C88.482 13.1542 88.6386 13.2055 88.7594 13.3084C88.8804 13.4129 88.9549 13.5611 88.9666 13.7206C88.9783 13.88 88.9262 14.0375 88.8218 14.1585L84.8529 18.7691C84.7982 18.8326 84.7309 18.884 84.6553 18.92C84.5796 18.956 84.4973 18.9759 84.4135 18.9784C84.3298 18.9808 84.2465 18.9657 84.1688 18.9342C84.0912 18.9026 84.0211 18.8552 83.9628 18.795L81.8482 16.611C81.7372 16.4968 81.6758 16.3433 81.6775 16.184C81.6793 16.0247 81.744 15.8726 81.8576 15.7609C81.9141 15.7051 81.9811 15.6611 82.0548 15.6313C82.1284 15.6015 82.2072 15.5865 82.2867 15.5873C82.3661 15.5881 82.4446 15.6045 82.5176 15.6357C82.5907 15.6669 82.6569 15.7122 82.7123 15.7691L84.3713 17.4822L87.9093 13.3755C87.9611 13.3149 88.0243 13.2652 88.0955 13.2292Z" fill="white"/>
<circle cx="85.3229" cy="16.0715" r="7.84078" stroke="white" stroke-width="2.28431"/>
</svg>
